inDegrees=yes
name=ik_S56_A07_T01
DataType=double
version=3
OpenSimVersion=4.3-2021-08-27-4bc7ad9
endheader
time	pelvis_tilt	pelvis_list	pelvis_rotation	pelvis_tx	pelvis_ty	pelvis_tz	hip_flexion_r	hip_adduction_r	hip_rotation_r	knee_angle_r	knee_angle_r_beta	ankle_angle_r	subtalar_angle_r	mtp_angle_r	hip_flexion_l	hip_adduction_l	hip_rotation_l	knee_angle_l	knee_angle_l_beta	ankle_angle_l	subtalar_angle_l	mtp_angle_l	lumbar_extension	lumbar_bending	lumbar_rotation	arm_flex_r	arm_add_r	arm_rot_r	elbow_flex_r	pro_sup_r	wrist_flex_r	wrist_dev_r	arm_flex_l	arm_add_l	arm_rot_l	elbow_flex_l	pro_sup_l	wrist_flex_l	wrist_dev_l
12.05999999999983	-7.794139219807332	-2.919746401074303	20.91466150384178	0	0.9399999999999999	0	45.68436320640895	-9.959644862452315	-10.04109757069133	54.53397715820566	0.9517974556180693	0	0	0	45.68436320640895	-9.959644862452315	-10.04109757069133	54.53397715820566	0.9517974556180693	0	0	0	-7.567332722097475	-0.3103599166294467	1.874980548219726	83.57639549843614	-12.16031653176927	27.30126487791003	99.48998929122992	132.7956169713651	0	0	35.35143574827698	-4.434764949729925	11.46411938241241	41.46876155785857	142.476221397634	0	0
12.07999999999983	-7.807686261346618	-2.916875505641833	20.9484948536834	0	0.9399999999999999	0	45.6841217767839	-9.959694375312319	-10.04106518040448	54.53408770619654	0.9517993850444917	0	0	0	45.6841217767839	-9.959694375312319	-10.04106518040448	54.53408770619654	0.9517993850444917	0	0	0	-7.578483115245208	-0.30500417701742	1.891468541387741	83.28300164705057	-12.23455304550818	27.14081026799138	99.40273519930632	132.415960983143	0	0	35.36472202638043	-4.377139791082004	11.47212304927135	41.48219403124673	142.4900770883653	0	0
12.09999999999983	-7.809065152455045	-2.917333902639172	20.94985350225496	0	0.9399999999999999	0	45.68389262057586	-9.959741285985432	-10.04103446983196	54.53419274990464	0.9518012184030565	0	0	0	45.68389262057586	-9.959741285985432	-10.04103446983196	54.53419274990464	0.9518012184030565	0	0	0	-7.580321813039679	-0.3040567881125853	1.887816052996427	82.89789665804342	-12.2442531820611	26.92534112870296	99.28516497893804	132.0903569364092	0	0	35.3506404502628	-4.369510213066648	11.41636188590685	41.50121003534546	142.5065393169235	0	0
12.11999999999983	-7.821425118070765	-2.910127041640647	20.92988744946233	0	0.9399999999999999	0	45.68367020558026	-9.959786782408745	-10.04100467329149	54.5342947041491	0.9518029978403089	0	0	0	45.68367020558026	-9.959786782408745	-10.04100467329149	54.5342947041491	0.9518029978403089	0	0	0	-7.590100609042582	-0.2906777519546758	1.87694465366661	82.46995522681166	-12.22024917172628	26.68228488630142	99.12230076425489	131.7664519485986	0	0	35.35280425932988	-4.360662048150733	11.31445914900572	41.52286740202506	142.5293085631271	0	0
12.13999999999983	-7.811088875192397	-2.910173243789536	20.9339126104652	0	0.9399999999999999	0	45.6834972442554	-9.959822008730022	-10.04098156649448	54.53437427513868	0.951804386616066	0	0	0	45.6834972442554	-9.959822008730022	-10.04098156649448	54.53437427513868	0.951804386616066	0	0	0	-7.580687812598361	-0.2938049137138474	1.875921061027593	81.91028388432886	-12.21226530662338	26.3460063520029	98.84948115758164	131.3994753101508	0	0	35.30971513882537	-4.387971456033094	11.24780883673366	41.52958475120317	142.5801026459704	0	0
12.15999999999983	-7.839743492130501	-2.899584267676968	20.9000556739434	0	0.9399999999999999	0	45.68323690122303	-9.959875281389515	-10.04094667216104	54.53449342751812	0.9518064662173988	0	0	0	45.68323690122303	-9.959875281389515	-10.04094667216104	54.53449342751812	0.9518064662173988	0	0	0	-7.605027201936759	-0.2697558373002716	1.856112625028046	81.3854562082107	-12.13446521063281	26.0395395312115	98.44353641882583	130.9475400576856	0	0	35.33574505018184	-4.391314667014462	11.11323612111346	41.59576465592735	142.5907273504656	0	0
12.17999999999983	-7.880823943368803	-2.85718637022877	20.79941533935041	0	0.9399999999999999	0	45.68301702003331	-9.959920177342394	-10.04091723918252	54.53459419892489	0.9518082250102388	0	0	0	45.68301702003331	-9.959920177342394	-10.04091723918252	54.53459419892489	0.9518082250102388	0	0	0	-7.631163648631887	-0.2061393572176472	1.80585113967622	80.81047038322417	-11.94825663642326	25.81516474497928	97.93041442943462	130.355172480262	0	0	35.34984903357897	-4.387979205288813	10.88516811793858	41.61104296267558	142.6003580342257	0	0
12.19999999999983	-7.892096330721778	-2.85767035145779	20.80419834366142	0	0.9399999999999999	0	45.68268495359045	-9.95998812232453	-10.04087271975884	54.53474595666178	0.9518108736824129	0	0	0	45.68268495359045	-9.95998812232453	-10.04087271975884	54.53474595666178	0.9518108736824129	0	0	0	-7.642247554346508	-0.2020224089323072	1.807248204473593	80.09726184396295	-11.85538411089652	25.42874593463728	97.35367335081557	129.715300816557	0	0	35.35975638943443	-4.375694632433346	10.89651470545954	41.65488576568747	142.6053798951292	0	0
12.21999999999983	-7.890373293255022	-2.844372401125518	20.77625462623442	0	0.9399999999999999	0	45.68248509132417	-9.960028789420591	-10.04084601916767	54.53483770560433	0.9518124750035457	0	0	0	45.68248509132417	-9.960028789420591	-10.04084601916767	54.53483770560433	0.9518124750035457	0	0	0	-7.63592409283105	-0.1897339292897613	1.811520412076373	79.21803479120338	-11.75058529748824	24.99578339143175	96.88562061589026	129.1640662971539	0	0	35.32240608781036	-4.370636978530666	10.89533766947527	41.65472766388235	142.5765590673006	0	0
12.23999999999983	-7.917859640341256	-2.803836267999096	20.64508724336133	0	0.9399999999999999	0	45.6822496752157	-9.960076705910362	-10.04081455786213	54.53494566998083	0.9518143593373904	0	0	0	45.6822496752157	-9.960076705910362	-10.04081455786213	54.53494566998083	0.9518143593373904	0	0	0	-7.648732666558965	-0.1353508224771444	1.781571035303214	78.25409690087739	-11.48291454564829	24.55791016103132	97.62504069893521	129.7780640182543	0	0	35.31537695670241	-4.398814628223596	10.72919406344703	41.67780179924045	142.5501162144628	0	0
12.25999999999983	-7.926193417977236	-2.802063100744923	20.64565316089476	0	0.9399999999999999	0	45.68187187763308	-9.960153769038305	-10.04076398677994	54.53511842120004	0.9518173744149524	0	0	0	45.68187187763308	-9.960153769038305	-10.04076398677994	54.53511842120004	0.9518173744149524	0	0	0	-7.65580179369947	-0.1307999227470497	1.793119253446608	77.25849613619415	-11.39705252730846	24.00769852703785	95.84308884287715	127.8939684410275	0	0	35.29985372836502	-4.399752106620782	10.76216534539222	41.76044179774827	142.5303828936532	0	0
12.27999999999983	-7.964289303401827	-2.758742475069615	20.50904023339221	0	0.9399999999999999	0	45.68163284140478	-9.960202379381162	-10.04073204867652	54.53522793989331	0.9518192858767425	0	0	0	45.68163284140478	-9.960202379381162	-10.04073204867652	54.53522793989331	0.9518192858767425	0	0	0	-7.679715091031436	-0.0636649553988899	1.724485558983206	76.2001759633081	-11.00278868423685	23.61796726559251	95.20711721411452	127.269897077658	0	0	35.29857642959804	-4.412273636756971	10.54720565752314	41.76720714349334	142.516378977919	0	0
